<svg 
  xmlns="http://www.w3.org/2000/svg" 
  viewBox="18 18 32 18" 
  width="40" 
  height="40" 
  fill="#000000"
>
  <path d="M20 35v-12.991c0-1.662 1.336-3.009 3-3.009h13c1.657 0 3 1.337 3 3.009v9.981c0 1.662-1.342 3.009-2.999 3.009h-10.001l-3.508 2.338c-1.377.918-2.492.319-2.492-1.329v-1.009zm4.891-1.664l.504-.336h10.607c.55 0 .999-.45.999-1.009v-9.981c0-.565-.444-1.009-1-1.009h-13c-.555 0-1 .447-1 1.009v12.991l2.891-1.664zm1.109-8.336c0-.552.438-1 1.003-1h4.994c.554 0 1.003.444 1.003 1 0 .552-.438 1-1.003 1h-4.994c-.554 0-1.003-.444-1.003-1zm0 4c0-.552.438-1 1.003-1h4.994c.554 0 1.003.444 1.003 1 0 .552-.438 1-1.003 1h-4.994c-.554 0-1.003-.444-1.003-1z"/>
</svg>
